<svg width="20" height="22" viewBox="0 0 20 22" fill="none" xmlns="http://www.w3.org/2000/svg">
<path d="M10.3526 0C10.8224 0.0973958 11.3037 0.154688 11.7505 0.303646C13.7615 0.968229 14.913 2.38333 15.2511 4.46302C15.3198 4.89271 15.3313 5.32813 15.3714 5.80365C15.5719 5.80365 15.7953 5.80938 16.0245 5.80365C16.2709 5.79219 16.4255 5.90677 16.5344 6.12448C17.0386 7.15 16.4943 8.49635 15.4172 8.90312C15.3427 8.93177 15.2453 9.00052 15.2281 9.06354C14.9073 10.4844 14.0708 11.5328 12.8906 12.3349C12.862 12.3578 12.8276 12.375 12.8047 12.3979C12.7932 12.4036 12.7932 12.4208 12.7932 12.4323C13.2917 12.6042 13.7958 12.7531 14.2771 12.9536C15.9672 13.6469 17.3823 14.6896 18.3677 16.2536C19.0953 17.4167 19.4505 18.6885 19.5136 20.0521C19.525 20.3328 19.4276 20.4646 19.1526 20.562C17.6516 21.0776 16.1219 21.4557 14.5521 21.662C13.4521 21.8052 12.3464 21.8797 11.2406 21.9828C11.1776 21.9885 11.1146 22.0057 11.0516 22.0172C10.1922 22.0172 9.33283 22.0172 8.47345 22.0172C8.1297 21.9885 7.79168 21.9599 7.44793 21.937C5.04168 21.7594 2.69845 21.3297 0.418246 20.5677C0.0744959 20.4531 -0.0171708 20.3271 1.67417e-05 19.9719C0.0859542 18.3964 0.561475 16.9583 1.51825 15.6922C1.64429 15.5203 1.79897 15.4229 2.01668 15.4745C2.19429 15.5146 2.32606 15.6349 2.33179 15.8125C2.33752 15.9443 2.29168 16.099 2.2172 16.2078C1.56408 17.0844 1.15158 18.0641 0.962517 19.1411C0.847933 19.8172 0.836475 19.8172 1.48387 20.0063C1.90783 20.1266 2.33752 20.2411 2.79012 20.3672C2.79012 19.8172 2.79012 19.3016 2.79012 18.7859C2.79012 18.3964 2.93908 18.1901 3.21408 18.1844C3.50054 18.1786 3.6495 18.3849 3.6495 18.7917C3.6495 19.3589 3.6495 19.9203 3.65522 20.4875C3.65522 20.499 3.66095 20.5161 3.67241 20.5505C5.07033 20.8427 6.49116 21.0146 7.9521 21.0948C7.83179 20.7682 7.71147 20.4703 7.62554 20.1609C7.58543 20.0177 7.56825 19.8516 7.59116 19.7026C7.88335 18.1271 8.19273 16.5573 8.48491 14.9818C8.50783 14.8672 8.49064 14.7354 8.45627 14.6266C8.27866 14.1224 8.0896 13.6182 7.89481 13.0854C7.4995 13.1771 7.09845 13.2344 6.72606 13.3604C6.11877 13.5609 5.52293 13.813 4.92137 14.0365C4.80106 14.0823 4.67502 14.1396 4.5547 14.1339C4.35991 14.1224 4.23387 13.9964 4.18804 13.7958C4.14793 13.601 4.22241 13.412 4.43439 13.3203C5.0245 13.0682 5.62606 12.8333 6.22189 12.6042C6.38231 12.5411 6.54845 12.5068 6.73179 12.4552C6.69168 12.4208 6.66304 12.3865 6.62866 12.3635C5.41981 11.5615 4.5547 10.513 4.23387 9.06354C4.22241 9.00625 4.1422 8.94323 4.07918 8.91458C3.0021 8.50208 2.47502 7.20729 2.962 6.15885C3.07658 5.91823 3.237 5.79219 3.512 5.80938C3.71252 5.82083 3.91304 5.80938 4.14793 5.80938C4.14793 5.66042 4.15366 5.51719 4.14793 5.37969C4.11929 4.51458 4.25106 3.68385 4.6521 2.90469C5.35106 1.55833 6.47397 0.750521 7.87762 0.309375C8.29585 0.177604 8.74272 0.126042 9.17814 0.0401042C9.22397 0.0286458 9.27554 0.0171875 9.32137 0C9.66512 0 10.0089 0 10.3526 0ZM14.4432 6.66302C14.3229 6.66302 14.237 6.66302 14.1511 6.66302C12.8964 6.66302 11.6474 6.68021 10.3927 6.65156C9.11512 6.62292 7.92345 6.26771 6.88075 5.5C6.84637 5.47708 6.80627 5.4599 6.76043 5.43698C6.45106 6.2276 5.83231 6.57135 5.01877 6.66875C5.01877 7.1901 5.00158 7.7 5.0245 8.21562C5.04168 8.54792 5.08752 8.88594 5.18491 9.20677C5.87241 11.4068 8.48491 12.8677 10.7594 12.3005C12.3578 11.9052 13.5495 10.9828 14.1969 9.43021C14.5693 8.54792 14.3974 7.61406 14.4432 6.66302ZM11.5443 21.0891C12.9594 21.0089 14.3229 20.8484 15.6865 20.5734C15.6865 19.9375 15.6865 19.3245 15.6865 18.7115C15.6865 18.3906 15.8641 18.1844 16.1276 18.1844C16.3854 18.1901 16.5516 18.3792 16.5516 18.7C16.5516 19.1411 16.5516 19.588 16.5516 20.0292C16.5516 20.138 16.5516 20.2526 16.5516 20.3786C16.6261 20.3672 16.6719 20.3615 16.712 20.3557C17.2677 20.201 17.8235 20.0406 18.3849 19.8974C18.574 19.8458 18.6255 19.7599 18.6026 19.5651C18.4307 18.087 17.8807 16.775 16.8552 15.6865C15.463 14.2198 13.6985 13.4807 11.7505 13.1141C11.6188 13.0911 11.5787 13.1427 11.5386 13.2516C11.3724 13.7214 11.1948 14.1911 11.0287 14.6609C10.9943 14.7583 10.9943 14.8729 11.0115 14.976C11.3094 16.5573 11.6188 18.1328 11.911 19.7141C11.9396 19.8516 11.9167 20.012 11.8766 20.1495C11.7849 20.4589 11.6646 20.7568 11.5443 21.0891ZM14.5005 5.78646C14.4662 5.3625 14.4547 4.95 14.3917 4.54323C14.174 3.17969 13.4979 2.11406 12.2604 1.44375C10.4042 0.446875 7.83179 0.761979 6.27345 2.17708C5.2021 3.15104 4.90991 4.39427 5.04168 5.78646C5.66616 5.70625 5.98127 5.36823 6.01564 4.75521C6.01564 4.70365 6.02137 4.65781 6.02137 4.60625C6.03283 4.41146 6.10158 4.25677 6.28491 4.17656C6.4797 4.09063 6.65158 4.14792 6.79481 4.29115C7.86043 5.35104 9.17814 5.78073 10.6505 5.79792C11.8594 5.80937 13.0682 5.80365 14.2828 5.80365C14.3401 5.80365 14.3917 5.79219 14.5005 5.78646ZM9.33283 15.1995C9.04064 16.7292 8.74845 18.2359 8.46772 19.7484C8.45054 19.8344 8.47345 19.9318 8.5021 20.0177C8.60522 20.3271 8.72554 20.6365 8.82866 20.9458C8.8745 21.0776 8.93179 21.1406 9.08075 21.1349C9.53335 21.1234 9.98022 21.1234 10.4328 21.1349C10.5761 21.1406 10.6333 21.0833 10.6735 20.9573C10.7708 20.6536 10.8969 20.3557 10.9943 20.0464C11.0344 19.9203 11.0401 19.7771 11.0229 19.651C10.937 19.1583 10.8396 18.6656 10.7422 18.1786C10.5531 17.1875 10.3641 16.2021 10.1693 15.1995C9.88856 15.1995 9.61929 15.1995 9.33283 15.1995ZM8.89168 13.263C9.00627 13.5781 9.12085 13.9104 9.24689 14.2312C9.26408 14.2771 9.35575 14.3115 9.41304 14.3172C9.63647 14.3286 9.85418 14.3286 10.0776 14.3172C10.1349 14.3172 10.2266 14.2771 10.2438 14.2312C10.3698 13.9104 10.4844 13.5781 10.599 13.263C10.0318 13.263 9.47033 13.263 8.89168 13.263ZM15.3198 6.68021C15.3198 7.10417 15.3198 7.5224 15.3198 7.94063C15.7266 7.71719 15.95 7.10417 15.7896 6.68021C15.6349 6.68021 15.4802 6.68021 15.3198 6.68021ZM4.13648 7.94635C4.13648 7.50521 4.13648 7.09271 4.13648 6.68021C3.98179 6.68021 3.83856 6.68021 3.70679 6.68021C3.57502 7.16146 3.74116 7.6599 4.13648 7.94635Z" fill="white" stroke="white" stroke-width="0.3"/>
</svg>
