<svg width="18" height="22" viewBox="0 0 18 22" fill="none" xmlns="http://www.w3.org/2000/svg">
<path d="M10.6192 0C11.1314 0.176456 11.3336 0.546584 11.3078 1.07595C11.2906 1.42456 11.3035 1.77317 11.3035 2.1476C11.3982 2.1476 11.4756 2.1476 11.5488 2.1476C12.345 2.1476 13.1369 2.1433 13.9331 2.1476C15.9344 2.15621 17.4407 3.64963 17.445 5.6509C17.4536 8.50003 17.4493 11.3491 17.445 14.1983C17.445 14.8654 16.9286 15.2957 16.3433 15.1193C16.0033 15.0203 15.7623 14.7233 15.7321 14.3704C15.7235 14.2757 15.7278 14.1854 15.7278 14.0907C15.7278 11.2975 15.7278 8.50433 15.7278 5.71546C15.7278 5.10862 15.5341 4.59647 15.0392 4.21773C14.7465 3.99394 14.4108 3.87343 14.045 3.86913C13.1412 3.86052 12.2417 3.86482 11.3035 3.86482C11.3681 4.91065 11.0582 5.80153 10.1716 6.42128C9.67235 6.76989 9.10856 6.91622 8.50172 6.86027C7.76147 6.79141 7.15032 6.46002 6.68982 5.8747C6.23361 5.29369 6.09589 4.61799 6.15615 3.87773C6.06577 3.87343 5.9969 3.86482 5.92804 3.86482C5.14045 3.86482 4.35284 3.86482 3.56525 3.86482C2.45056 3.86482 1.72322 4.59216 1.72322 5.70685C1.72322 9.9461 1.72322 14.1854 1.72322 18.4246C1.72322 19.5522 2.44626 20.2752 3.57816 20.2752C7.0169 20.2752 10.4513 20.2752 13.8901 20.2752C14.7896 20.2752 15.4438 19.7975 15.6633 18.9798C15.702 18.8292 15.7149 18.6699 15.7278 18.515C15.7709 18.033 16.1453 17.6844 16.6144 17.7016C17.0792 17.7188 17.4364 18.0932 17.445 18.5752C17.4752 20.1978 16.1625 21.7299 14.5572 21.9494C14.3678 21.9753 14.1741 21.9968 13.9805 21.9968C10.4772 22.0011 6.97817 22.0011 3.47487 21.9968C1.96423 21.9925 0.681695 21.093 0.199669 19.6727C0.0748582 19.3069 0.0103052 18.9023 0.0103052 18.515C-0.00260622 14.2198 -0.00261042 9.92459 0.0059972 5.62939C0.010301 3.66685 1.51664 2.16482 3.47487 2.15191C4.27538 2.1476 5.08019 2.15191 5.8807 2.15191C5.95817 2.15191 6.03564 2.15191 6.14323 2.15191C6.14323 1.78178 6.16045 1.42887 6.13893 1.07165C6.1088 0.537977 6.31539 0.176455 6.83184 0.00430276C8.10147 -1.0508e-06 9.36248 0 10.6192 0ZM7.87767 1.73013C7.87767 2.63393 7.86476 3.52482 7.88628 4.41571C7.89058 4.68254 8.05843 4.89343 8.29514 5.03546C8.88046 5.37976 9.57767 4.9623 9.58628 4.25217C9.59489 3.45166 9.59059 2.65115 9.58628 1.85064C9.58628 1.8119 9.57336 1.76886 9.56906 1.73013C9.00096 1.73013 8.44578 1.73013 7.87767 1.73013Z" fill="white"/>
<path d="M8.00268 17.3572C7.38724 17.3485 6.85357 17.1377 6.41458 16.7073C5.67002 15.9842 4.93407 15.2526 4.19812 14.5209C3.94419 14.267 3.8452 13.9657 3.96141 13.6171C4.0647 13.2987 4.29279 13.1007 4.61988 13.0361C4.94267 12.9716 5.20521 13.0964 5.43331 13.3202C5.90242 13.785 6.37153 14.2455 6.83634 14.7103C7.06875 14.9427 7.30546 15.1751 7.53787 15.4032C7.87787 15.7389 8.17053 15.7131 8.44167 15.3258C9.65534 13.5827 10.8647 11.8354 12.0784 10.0923C12.3581 9.69206 12.6938 9.55004 13.0812 9.66194C13.6062 9.81257 13.8645 10.3936 13.6062 10.8799C13.5417 11.0047 13.4513 11.1209 13.3738 11.2371C12.1774 12.9587 10.9852 14.6802 9.78876 16.4017C9.3756 16.9956 8.68699 17.3615 8.00268 17.3572Z" fill="white"/>
</svg>
