<svg width="21" height="22" viewBox="0 0 21 22" fill="none" xmlns="http://www.w3.org/2000/svg">
<path d="M9.89266 21.9771C9.38829 21.8796 8.89538 21.7421 8.44259 21.4899C6.37351 20.3321 4.30443 19.1744 2.23535 18.0223C1.86281 17.816 1.48453 17.6039 1.11198 17.3919C0.384076 16.9792 -0.0056692 16.3487 6.23207e-05 15.5177C6.23207e-05 14.6866 0.395536 14.0618 1.12344 13.6492C1.34697 13.5231 1.56476 13.397 1.81695 13.2594C1.57623 13.1219 1.36416 13.0015 1.15783 12.8869C0.412729 12.4799 6.23207e-05 11.8437 6.23207e-05 10.9955C6.23207e-05 10.1472 0.406999 9.51102 1.1521 9.10408C1.36416 8.98945 1.5705 8.86909 1.81695 8.73153C1.58769 8.59971 1.38136 8.48508 1.18075 8.37618C0.424193 7.96924 6.23207e-05 7.33877 6.23207e-05 6.47905C-0.0056692 5.60785 0.424193 4.98312 1.18075 4.55899C3.59372 3.21781 6.0067 1.86517 8.41967 0.518265C9.62329 -0.152323 10.8556 -0.180981 12.0592 0.483876C14.5237 1.84225 16.9768 3.21781 19.4299 4.59338C20.1578 5.00031 20.5533 5.63078 20.5533 6.46185C20.5533 7.30438 20.1578 7.93485 19.4242 8.34752C19.2064 8.46788 18.9886 8.59398 18.7421 8.73153C18.9886 8.86909 19.2121 8.99518 19.4299 9.12128C20.1578 9.53395 20.5533 10.1587 20.559 10.9898C20.5648 11.8208 20.175 12.4513 19.4528 12.8697C19.2293 12.9958 19.0058 13.1219 18.7479 13.2709C19 13.4142 19.2236 13.5403 19.4528 13.6664C19.9973 13.9759 20.3584 14.4229 20.5074 15.0305C20.7252 15.9189 20.3756 16.8531 19.5847 17.3173C18.3638 18.0281 17.1258 18.7101 15.8821 19.3922C15.4522 19.6271 14.9479 19.4552 14.7243 19.0311C14.5065 18.6127 14.6556 18.1198 15.0912 17.8733C16.2375 17.2314 17.3838 16.5894 18.5301 15.9532C18.702 15.8558 18.8453 15.7469 18.8396 15.5348C18.8396 15.3285 18.702 15.2196 18.5358 15.1279C18.0658 14.87 17.5958 14.6121 17.1316 14.3427C17.0055 14.2682 16.9195 14.2796 16.8049 14.3484C15.286 15.2024 13.7614 16.045 12.2426 16.8989C10.9301 17.6383 9.62901 17.6498 8.3165 16.9047C6.79764 16.045 5.27306 15.2081 3.75421 14.3542C3.62811 14.2854 3.53068 14.2796 3.40459 14.3542C2.94033 14.6235 2.47035 14.8815 2.00036 15.1394C1.83415 15.2311 1.70233 15.3457 1.70806 15.552C1.70806 15.7469 1.83415 15.8558 1.99463 15.9475C4.4248 17.3059 6.85496 18.6643 9.29085 20.0169C9.95571 20.3894 10.6263 20.3665 11.2912 20.0054C11.8299 19.7131 12.4317 19.9825 12.5693 20.5614C12.6553 20.9167 12.489 21.2893 12.1452 21.4899C11.7325 21.7306 11.2912 21.8911 10.8212 21.9599C10.7639 21.9656 10.7123 21.9885 10.6607 22C10.4085 21.9771 10.1506 21.9771 9.89266 21.9771ZM10.2652 1.66457C9.93852 1.77347 9.60036 1.83078 9.31951 1.99127C6.87215 3.33817 4.44199 4.70801 2.00036 6.06638C1.83988 6.15808 1.71379 6.26125 1.71379 6.45612C1.70806 6.66245 1.83415 6.77708 2.00036 6.86879C4.43053 8.22716 6.86069 9.58553 9.29658 10.9382C9.94425 11.2993 10.6091 11.2935 11.2625 10.9382C11.6064 10.749 11.9503 10.5542 12.2884 10.365C14.369 9.20152 16.4553 8.03802 18.5358 6.88025C18.9313 6.65672 18.9599 6.29564 18.5931 6.0893C16.1343 4.71374 13.6697 3.33244 11.1995 1.97407C10.9243 1.81932 10.5976 1.76774 10.2652 1.66457ZM10.2767 15.7297C10.2824 15.7469 10.2881 15.7698 10.2939 15.787C10.6034 15.6896 10.9358 15.638 11.2166 15.4833C13.6755 14.1306 16.1228 12.7551 18.5702 11.3852C18.9427 11.1789 18.9427 10.8178 18.5702 10.6057C18.1059 10.3421 17.6302 10.0899 17.1717 9.82052C17.0341 9.74028 16.931 9.73455 16.7877 9.81479C15.2631 10.6745 13.7328 11.5228 12.2082 12.3768C10.9243 13.099 9.64048 13.099 8.35662 12.3768C6.8263 11.5171 5.29025 10.6631 3.75994 9.80333C3.63384 9.72882 3.53641 9.72882 3.41032 9.80333C2.94033 10.0727 2.46461 10.3364 1.9889 10.6C1.82268 10.6917 1.71379 10.8063 1.71379 11.0012C1.71379 11.1846 1.82842 11.2993 1.98317 11.3852C4.41906 12.7436 6.86069 14.1077 9.29658 15.4661C9.60036 15.638 9.92133 15.7354 10.2767 15.7297Z" fill="white"/>
</svg>
