<svg width="49" height="23" viewBox="0 0 49 23" fill="none" xmlns="http://www.w3.org/2000/svg">
<path d="M45.59 22.4541C45.1485 22.4541 44.7127 22.4541 44.2711 22.4541C43.411 22.4097 42.677 22.0653 42.0175 21.5542C41.4384 21.1042 41.014 20.5265 40.6356 19.9154C39.1733 17.5767 37.7053 15.2324 36.2201 12.8715C36.1972 12.9937 36.2086 13.0881 36.2086 13.1826C36.2086 14.9436 36.2086 16.7045 36.2086 18.4655C36.2086 19.2821 36.071 20.0599 35.6352 20.7709C35.0617 21.7097 34.2704 22.343 33.1006 22.4264C33.0605 22.4264 33.0261 22.4264 32.9916 22.4541C32.5157 22.4541 32.0397 22.4541 31.5581 22.4541C31.128 22.3597 30.6807 22.3486 30.2678 22.143C29.2643 21.6375 28.5131 20.8987 27.9454 19.9599C27.0336 18.4544 26.0817 16.9767 25.1642 15.4769C24.6424 14.6214 24.1034 13.7714 23.5758 12.9048C23.5242 13.027 23.5529 13.1326 23.5529 13.2437C23.5529 14.7936 23.5586 16.3435 23.5471 17.8933C23.5414 18.5655 23.4497 19.2321 23.1916 19.871C22.6296 21.2542 21.5459 21.9875 20.0664 22.243C19.7739 22.293 19.4815 22.3041 19.1833 22.3041C16.8723 22.3041 14.5671 22.3375 12.2562 22.293C9.50369 22.2375 6.9863 21.4709 4.83591 19.7488C3.35071 18.56 2.28412 17.0767 1.596 15.3324C1.25194 14.438 1.03977 13.5214 1.01109 12.5604C1.01109 12.5159 1.01683 12.466 0.982422 12.4271C0.982422 12.3548 0.982422 12.2771 0.982422 12.2049C1.01683 12.1715 1.01109 12.1326 1.01109 12.0938C1.01109 12.0549 1.01683 12.016 0.982422 11.9827C0.982422 11.5049 0.982422 11.0216 0.982422 10.5439C1.01683 10.5105 1.01109 10.4716 1.01109 10.4328C1.01109 10.3939 1.01683 10.355 0.982422 10.3217C0.982422 10.2494 0.982422 10.1717 0.982422 10.0995C1.07991 9.67726 1.03403 9.2384 1.12578 8.81621C1.46984 7.22743 2.15797 5.7942 3.18442 4.51096C4.42304 2.95551 6.02866 1.87225 7.93247 1.18341C8.8213 0.861214 9.7388 0.661228 10.6735 0.539014C11.2183 0.466797 11.7745 0.483462 12.3307 0.477907C13.512 0.461242 14.699 0.472352 15.8803 0.472352C16.2301 0.472352 16.276 0.516793 16.2817 0.855658C16.2874 1.61116 16.2874 2.36666 16.2817 3.12772C16.276 3.49436 16.19 3.58324 15.8 3.58324C14.4754 3.5888 13.145 3.57213 11.8204 3.5888C9.97391 3.61102 8.30521 4.16098 6.88308 5.29424C5.62152 6.29972 4.80724 7.61074 4.37143 9.13841C4.16499 9.86058 4.03884 10.605 4.04457 11.3494C4.05031 12.5159 4.26821 13.6548 4.77284 14.7325C5.19145 15.6268 5.74194 16.4323 6.48168 17.099C7.64002 18.1322 9.01627 18.7544 10.5645 19.021C11.1839 19.1266 11.8089 19.1877 12.4397 19.1877C14.5958 19.1821 16.7519 19.1877 18.908 19.1877C19.384 19.1877 19.7911 19.0433 20.0549 18.6377C20.2212 18.3822 20.2614 18.0878 20.2614 17.7878C20.2614 15.7657 20.2614 13.7436 20.2614 11.7216C20.2614 9.4495 20.2614 7.18299 20.2614 4.91093C20.2614 4.7165 20.2499 4.52762 20.3244 4.33875C20.5366 3.79434 21.1559 3.62213 21.6319 3.98877C21.8326 4.14432 21.9587 4.34986 22.0849 4.54984C23.7823 7.22188 25.4911 9.8828 27.2057 12.5437C28.5246 14.5825 29.8435 16.6268 31.1566 18.6655C31.3975 19.0377 31.7932 19.2377 32.1888 19.1766C32.5386 19.121 32.8196 18.8044 32.9171 18.3766C32.963 18.1656 32.9687 17.9545 32.9687 17.7434C32.9687 13.4881 32.9687 9.23285 32.9687 4.97759C32.9687 4.77761 32.9515 4.57206 33.0203 4.37208C33.221 3.78323 33.8862 3.60547 34.3736 4.01099C34.6489 4.23875 34.7922 4.5554 34.9757 4.84427C36.0595 6.56081 37.1548 8.26625 38.2501 9.97724C39.4715 11.8938 40.6986 13.7992 41.9258 15.7157C42.5451 16.6879 43.1701 17.66 43.8009 18.6266C44.036 18.9877 44.3514 19.2155 44.8159 19.1766C45.2861 19.1377 45.5671 18.81 45.6359 18.2267C45.7277 17.8656 45.7219 17.4934 45.7219 17.1267C45.7219 11.7493 45.7219 6.37194 45.7219 0.994538C45.7219 0.838993 45.6875 0.677893 45.7678 0.533459C45.8424 0.455687 45.9456 0.477907 46.0373 0.472352C46.8688 0.472352 47.6946 0.477907 48.526 0.466797C48.7497 0.466797 48.8185 0.533459 48.8185 0.75011C48.8128 6.75524 48.8128 12.7604 48.8128 18.76C48.8128 19.5932 48.6751 20.3876 48.1246 21.0765C47.5111 21.8431 46.7713 22.393 45.7162 22.4264C45.6761 22.4319 45.6302 22.4264 45.59 22.4541Z" fill="#B1A6AF"/>
</svg>
