<svg width="21" height="20" viewBox="0 0 21 20" fill="none" xmlns="http://www.w3.org/2000/svg">
<path fill-rule="evenodd" clip-rule="evenodd" d="M18.6952 1.30602C19.4165 2.02731 19.4165 3.19676 18.6952 3.91806L3.91926 18.694C3.19796 19.4153 2.02851 19.4153 1.30722 18.694C0.585925 17.9727 0.585924 16.8032 1.30722 16.0819L16.0831 1.30602C16.8044 0.584725 17.9739 0.584725 18.6952 1.30602Z" fill="#F11046"/>
<path fill-rule="evenodd" clip-rule="evenodd" d="M1.3058 1.30602C2.02709 0.584725 3.19654 0.584725 3.91784 1.30602L18.6938 16.0819C19.4151 16.8032 19.4151 17.9727 18.6938 18.694C17.9725 19.4153 16.803 19.4153 16.0817 18.694L1.3058 3.91806C0.584502 3.19676 0.584502 2.02731 1.3058 1.30602Z" fill="#F11046"/>
</svg>
