<svg width="23" height="22" viewBox="0 0 23 22" fill="none" xmlns="http://www.w3.org/2000/svg">
<path d="M7.08831 0C7.4594 0.118318 7.85738 0.182859 8.20157 0.360335C9.41164 0.973436 10.0785 1.97376 10.1269 3.33441C10.1646 4.4907 10.1538 5.65237 10.1323 6.81403C10.0893 8.61569 8.62107 10.0893 6.81403 10.1323C5.65774 10.1592 4.49608 10.1592 3.33441 10.1323C1.67258 10.1 0.290419 8.85232 0.0430273 7.20663C0.0376492 7.16898 0.0161342 7.12596 0 7.08831C0 5.74379 0 4.39927 0 3.04938C0.0107562 3.01711 0.0322724 2.98484 0.0376505 2.95257C0.231261 1.7425 0.882008 0.865874 1.97914 0.338822C2.31258 0.177479 2.68904 0.11294 3.04938 0C4.3939 0 5.73841 0 7.08831 0ZM5.06616 8.4167C5.59321 8.4167 6.12564 8.42207 6.65269 8.4167C7.65839 8.40056 8.39518 7.68528 8.41132 6.69033C8.42745 5.60934 8.42745 4.52835 8.41132 3.44735C8.39518 2.46854 7.67452 1.73712 6.69571 1.72099C5.60934 1.70485 4.52297 1.70485 3.43122 1.72099C2.45779 1.73712 1.73712 2.45241 1.72099 3.42584C1.69947 4.51759 1.69947 5.61472 1.72099 6.71185C1.73712 7.70141 2.4793 8.40594 3.47425 8.4167C4.00667 8.42207 4.5391 8.4167 5.06616 8.4167Z" fill="white"/>
<path d="M18.9361 0C19.3072 0.118318 19.7052 0.182859 20.0494 0.360335C21.2594 0.973436 21.9263 1.97376 21.9747 3.33441C22.0177 4.4907 22.0016 5.65237 21.9801 6.80865C21.9425 8.61031 20.4689 10.0839 18.6672 10.1269C17.5002 10.1538 16.3331 10.1538 15.1714 10.1269C13.3698 10.0839 11.9016 8.61031 11.8585 6.80865C11.8317 5.65237 11.8317 4.4907 11.8585 3.33441C11.8908 1.67258 13.1385 0.290419 14.7842 0.0430273C14.8219 0.0376492 14.8649 0.0161342 14.9025 0C16.2471 0 17.5916 0 18.9361 0ZM16.9193 8.41669C17.4464 8.41669 17.9788 8.42207 18.5059 8.41669C19.5116 8.40056 20.2484 7.68528 20.2645 6.69033C20.2806 5.60934 20.2806 4.52835 20.2645 3.44735C20.2484 2.46854 19.5277 1.73713 18.5489 1.72637C17.4625 1.71023 16.3761 1.71023 15.2844 1.72637C14.311 1.7425 13.5903 2.45779 13.5742 3.43122C13.5526 4.52297 13.5526 5.62009 13.5742 6.71722C13.5903 7.70679 14.3325 8.41132 15.3274 8.42208C15.8598 8.42208 16.3923 8.41669 16.9193 8.41669Z" fill="white"/>
<path d="M0 14.9033C0.118318 14.5322 0.182859 14.1342 0.360335 13.7901C0.973436 12.58 1.97376 11.9131 3.33441 11.8647C4.4907 11.8217 5.65237 11.8378 6.80865 11.8593C8.61031 11.897 10.0839 13.3706 10.1269 15.1722C10.1538 16.3393 10.1538 17.5063 10.1269 18.668C10.0839 20.4696 8.61031 21.9378 6.80865 21.9809C5.65237 22.0078 4.4907 22.0078 3.33441 21.9809C1.67258 21.9486 0.290419 20.7009 0.0430273 19.0552C0.0376492 19.0175 0.0161342 18.9745 0 18.9369C0 17.5924 0 16.2478 0 14.9033ZM8.41669 16.9362C8.41669 16.3984 8.42207 15.8606 8.41669 15.3282C8.40056 14.3225 7.68528 13.5857 6.68496 13.5749C5.60396 13.5588 4.52296 13.5588 3.44197 13.5749C2.46316 13.5911 1.73712 14.3117 1.72099 15.2905C1.70485 16.3769 1.70485 17.4633 1.72099 18.555C1.73712 19.5285 2.45241 20.2491 3.42584 20.2653C4.51759 20.2868 5.61472 20.2868 6.71185 20.2653C7.69066 20.2491 8.39518 19.5123 8.41669 18.5281C8.42745 17.9957 8.41669 17.4687 8.41669 16.9362Z" fill="white"/>
<path d="M16.9196 21.9446C16.2097 21.9446 15.4997 22.0038 14.8006 21.9339C13.2141 21.7672 11.9179 20.3527 11.8695 18.7554C11.8319 17.5346 11.8319 16.3084 11.8695 15.0876C11.9233 13.4096 13.3162 11.9629 15.0157 11.8822C16.3441 11.8177 17.6832 11.8123 19.0063 11.9145C20.2862 12.0167 21.1844 12.7804 21.7114 13.9528C21.8997 14.3669 21.6899 14.8402 21.2812 15.0338C20.8724 15.2274 20.3884 15.0822 20.1733 14.6735C19.9367 14.2163 19.6301 13.8452 19.13 13.6839C18.931 13.6194 18.7105 13.5817 18.5007 13.5817C17.4574 13.571 16.414 13.571 15.3653 13.5763C14.3058 13.5817 13.5744 14.3185 13.5744 15.378C13.569 16.4106 13.569 17.4378 13.5744 18.4704C13.5798 19.5406 14.3112 20.2721 15.3868 20.2721C16.4086 20.2774 17.4305 20.2774 18.4577 20.2721C19.4957 20.2667 20.1948 19.6105 20.2701 18.578C20.3077 18.0348 20.6842 17.6744 21.179 17.7013C21.6738 17.7282 22.0018 18.1262 21.9857 18.6748C21.9319 20.4603 20.4691 21.9285 18.6836 21.9877C18.0974 22.0038 17.5111 21.993 16.9249 21.993C16.9196 21.9715 16.9196 21.9608 16.9196 21.9446Z" fill="white"/>
</svg>
