<svg width="90" height="14" viewBox="0 0 90 14" fill="none" xmlns="http://www.w3.org/2000/svg">
<path d="M32.1992 5.95898C32.2356 5.9686 32.229 5.99425 32.2257 6.01989C32.2191 6.04233 32.2091 6.04233 32.1992 6.0231C32.1992 6.00066 32.1992 5.98142 32.1992 5.95898Z" fill="#B1A6AF"/>
<path d="M32.1992 6.02274C32.2091 6.02274 32.2191 6.01953 32.2257 6.01953C32.229 6.04518 32.229 6.07082 32.1992 6.08364C32.1992 6.06441 32.1992 6.04518 32.1992 6.02274Z" fill="#B1A6AF"/>
<path d="M32.1992 6.91797C32.229 6.93079 32.2323 6.95644 32.2257 6.98208C32.2158 7.00132 32.2058 7.00131 32.1992 6.97888C32.1992 6.95964 32.1992 6.94041 32.1992 6.91797Z" fill="#B1A6AF"/>
<path d="M32.1992 6.98242C32.2091 6.98242 32.2191 6.98242 32.2257 6.98563C32.229 7.01127 32.2323 7.03692 32.1992 7.04654C32.1992 7.0241 32.1992 7.00486 32.1992 6.98242Z" fill="#B1A6AF"/>
<g clip-path="url(#clip0_3082_6991)">
<path d="M2.57547 8.53818V5.29226L1.558 5.73488C1.558 5.73488 1.29593 6.29554 1.34217 7.10702C1.37301 7.74145 1.743 8.49392 2.0359 8.81851L2.57547 8.53818ZM5.56622 1.85453C5.81288 1.86928 6.21371 1.98732 6.50661 2.23814C6.83036 2.53322 6.89202 2.97585 6.78411 3.38896C6.69161 3.74306 6.56828 3.93487 6.18287 4.18569C5.79747 4.43651 5.31956 4.42176 5.31956 4.42176V5.9857L6.12121 6.60538L5.31956 7.22506V9.36442C5.31956 9.36442 6.12121 8.92179 6.61453 7.94801C6.61453 7.94801 6.62994 7.889 6.67619 7.80047C6.72244 8.06605 6.69161 8.5972 6.38328 9.27589C6.16746 9.76278 5.7358 10.2497 5.21165 10.5448C4.27126 11.0464 3.56211 11.0907 2.7913 10.9431C1.89716 10.7661 1.09551 10.2939 0.54053 9.45294C0.155124 8.86277 -0.0144549 8.18408 0.000961296 7.44637C0.0317938 6.00046 1.15718 4.76111 2.45214 4.28897C2.60631 4.22995 2.66797 4.20045 2.89921 4.17094C2.7913 4.24471 2.68339 4.31848 2.52922 4.42176C2.11299 4.68733 1.75841 5.20373 1.60425 5.60209L4.1171 4.52504V7.889L2.08215 8.86277C2.3134 9.17261 3.02254 9.62999 3.60836 9.70376C4.62583 9.80704 5.22707 9.37917 5.22707 9.37917V7.19555L4.44084 6.57587L5.22707 5.95619V4.42176C4.79541 4.3775 4.27126 4.24471 3.96293 4.17094C3.53128 4.0529 2.02049 3.65454 1.78925 3.61028C1.558 3.58077 1.26509 3.58077 1.0801 3.74306C0.910519 3.89061 0.787189 4.15618 0.864271 4.407C0.910519 4.53979 1.00302 4.62832 1.0801 4.70209C1.0801 4.70209 0.987601 4.70209 0.833438 4.59881C0.555946 4.43651 0.340119 4.11192 0.309286 3.72831C0.278454 3.21191 0.509697 2.73978 0.956768 2.42994C1.34217 2.19387 1.77383 2.04633 2.28256 2.10535C3.02254 2.20863 4.0246 2.60699 4.90332 2.81355C5.24248 2.88732 5.51997 2.91683 5.75122 2.78404C5.85913 2.71027 6.05954 2.50371 5.90538 2.23814C5.72039 1.9283 5.3504 1.9283 5.04207 1.88404C5.30415 1.83977 5.36581 1.83977 5.56622 1.85453Z" fill="#B1A6AF"/>
<path d="M15.3402 7.69681L14.1994 8.49353V5.82302L15.3402 7.69681ZM15.3093 5.12958C15.3093 5.12958 14.5385 5.5722 14.0144 5.86729C13.4902 6.16237 12.7965 6.48696 12.7965 6.48696V9.58534L12.334 9.93945L12.3957 10.0132L12.8427 9.65912L14.261 10.8837L16.7276 9.00993L16.666 8.93616L15.3093 9.9542L14.184 8.95091V8.58206L16.4347 7.00336L15.3093 5.12958Z" fill="#B1A6AF"/>
<path d="M8.86535 12.064C9.1891 12.1378 9.7595 12.182 10.4532 11.8574C11.2086 11.4886 11.594 10.7214 11.594 9.92464L11.6249 8.80332V6.33937L12.1182 5.98527L12.0565 5.9115L11.5632 6.25085L10.4532 5.07051L9.03493 6.23609V2.28197L7.26207 3.59509C7.33915 3.63935 7.58581 3.68362 7.60122 4.02296V9.57054L6.86124 10.1017L6.90749 10.1755L7.27748 9.90989L8.27954 10.8099L9.86741 9.6148L9.80575 9.54103L9.43576 9.82136L9.03493 9.45251V6.36888L9.49742 5.98527L10.1912 6.81151C10.1912 6.81151 10.1912 8.81808 10.1912 9.48202C10.1912 10.1902 10.1912 11.0755 9.79033 11.5033C9.42034 11.9165 9.25076 11.946 8.86535 12.064Z" fill="#B1A6AF"/>
<path d="M19.888 11.7837C19.2559 11.7099 18.9938 11.341 18.9938 11.0607C18.9938 10.8689 19.1788 10.5148 19.5642 10.4558C19.9496 10.4115 20.3504 10.5738 20.6742 10.9574L22.1387 9.40824L22.0617 9.34923L21.6608 9.7771C21.26 9.33447 20.6896 9.0689 20.1346 8.98037V4.25903L23.9424 10.8984C23.9424 10.8984 23.9733 10.9722 24.1428 10.9722C24.2816 10.9722 24.2508 10.8689 24.2508 10.8689V4.18526C24.5591 4.1705 25.037 4.00821 25.2682 3.78689C26.0082 3.06394 25.6999 2.28197 25.6228 2.2082C25.5766 2.54754 25.2991 2.90164 24.8366 2.90164C24.2353 2.90164 23.8654 2.47377 23.8654 2.47377L22.3854 4.05247L22.4625 4.11149L22.8787 3.65411C23.3874 4.11149 23.7729 4.141 24.1583 4.1705V8.05086L21.3217 3.13771C21.0596 2.73935 20.6742 2.37049 20.073 2.37049C19.3638 2.37049 18.8705 2.96066 18.8088 3.4623C18.7472 4.03772 18.8088 4.1705 18.8088 4.1705C18.8088 4.1705 18.9167 3.53607 19.333 3.53607C19.703 3.53607 19.9034 3.87542 20.0421 4.11149V5.52789C19.6567 5.5574 18.6547 5.60166 18.593 6.59019C18.593 6.95905 18.8242 7.34266 19.0401 7.47544C19.3176 7.6525 19.518 7.63774 19.518 7.63774C19.518 7.63774 19.1942 7.47544 19.2867 7.15085C19.3792 6.85577 20.0113 6.81151 20.0267 6.92954V8.93611C19.7184 8.93611 18.7472 8.96562 18.3001 9.76235C18.038 10.2492 18.0534 10.7951 18.3309 11.1787C18.593 11.5181 19.0709 11.9165 19.888 11.7837Z" fill="#B1A6AF"/>
<path d="M27.9506 7.69681L26.8098 8.49353V5.82302L27.9506 7.69681ZM27.9198 5.12958C27.9198 5.12958 27.149 5.5722 26.6249 5.86729C26.1007 6.16237 25.407 6.48696 25.407 6.48696V9.58534L24.9445 9.93945L25.0061 10.0132L25.4532 9.65912L26.8715 10.8837L29.3381 9.00993L29.2764 8.93616L27.9198 9.9542L26.7944 8.95091V8.58206L29.0452 7.00336L27.9198 5.12958Z" fill="#B1A6AF"/>
<path d="M31.3731 10.9132L30.1706 9.9542L29.6464 10.3231L29.6002 10.2493L30.1398 9.86567V7.19516C30.1706 6.0886 29.076 6.36893 29.1377 5.18859C29.1685 4.6722 29.6773 4.28859 29.9548 4.1558C30.2323 4.02301 30.5406 4.02301 30.5406 4.02301C30.5406 4.02301 30.0473 4.3181 30.1706 4.74597C30.3556 5.39515 31.5272 5.45417 31.5426 6.33942V9.36403L32.406 10.028L32.6372 9.85092V6.56073L32.1747 6.11811L33.3772 5.10007L34.4717 6.02958L34.0555 6.45745V9.37879L35.0884 10.1903L35.2734 10.0722V6.57549L34.8109 6.16237L36.0134 5.11482L37.1387 6.00007L37.5858 5.61647L37.6475 5.69024L36.63 6.54598V9.40829L34.0401 10.928L32.7143 9.92469L31.3731 10.9132Z" fill="#B1A6AF"/>
<path d="M84.297 7.69681L83.1562 8.49353V5.82302L84.297 7.69681ZM84.2662 5.12958C84.2662 5.12958 83.4954 5.5722 82.9712 5.86729C82.4471 6.16237 81.7533 6.48696 81.7533 6.48696V9.58534L81.2908 9.93945L81.3525 10.0132L81.7996 9.65912L83.2179 10.8837L85.6845 9.00993L85.6228 8.93616L84.2662 9.9542L83.1408 8.95091V8.58206L85.407 7.01811L84.2662 5.12958Z" fill="#B1A6AF"/>
<path d="M72.704 6.42792L72.7657 6.50169L73.2282 6.11808L73.9219 6.85579V9.42302L73.5827 9.71811L74.6619 10.8689L75.7564 9.83614L75.3093 9.37876V6.29513L75.5868 6.07382L76.3422 6.92956V9.48204L76.0493 9.76237L77.0668 10.8394L78.1459 9.80663L77.7451 9.40827V6.29513L78.038 6.07382L78.8242 6.91481V9.45253L78.5622 9.70335L79.6721 10.8689L81.1829 9.54106L81.1058 9.48204L80.7513 9.79188L80.1963 9.20171V6.30989L80.7359 5.91152L80.6742 5.83775L80.1346 6.23612L79.1171 5.14431L77.6526 6.23612L76.6351 5.17381L75.2323 6.23612L74.1994 5.18857L72.704 6.42792Z" fill="#B1A6AF"/>
<path d="M69.667 6.35413L69.7286 6.41314L70.1141 6.08855L70.7307 6.782V9.71808L70.299 10.0722L70.3607 10.146L70.8078 9.7771L71.7944 10.8689L73.2281 9.64431L73.1665 9.57054L72.7502 9.92464L72.149 9.27546V6.41314L72.6577 6.00002L72.5961 5.94101L72.1182 6.32462L71.0853 5.15904L69.667 6.35413Z" fill="#B1A6AF"/>
<path d="M70.0678 3.91976L71.1469 2.97549L72.0257 3.905L70.9465 4.84927L70.0678 3.91976Z" fill="#B1A6AF"/>
<path d="M65.6434 8.53775V5.29183L64.6259 5.73445C64.6259 5.73445 64.3638 6.29511 64.4101 7.10659C64.4409 7.74102 64.8109 8.49349 65.1038 8.81808L65.6434 8.53775ZM68.6341 1.8541C68.8808 1.86885 69.2816 1.98688 69.5745 2.23771C69.8982 2.53279 69.9599 2.97542 69.852 3.38853C69.7595 3.74263 69.6362 3.93444 69.2508 4.18526C68.8654 4.43608 68.3875 4.42133 68.3875 4.42133V5.98527L69.1891 6.60495L68.3875 7.22463V9.36399C68.3875 9.36399 69.1891 8.92136 69.6824 7.94758C69.6824 7.94758 69.6978 7.88857 69.7441 7.80004C69.7903 8.06562 69.7595 8.59677 69.4512 9.27546C69.2199 9.79186 68.7883 10.2787 68.2641 10.5591C67.3237 11.0607 66.6146 11.105 65.8592 10.9574C64.965 10.7804 64.1634 10.3083 63.6084 9.46726C63.223 8.8771 63.0534 8.1984 63.0688 7.46069C63.0997 6.01478 64.2251 4.77543 65.52 4.30329C65.6742 4.24428 65.7358 4.21477 65.9671 4.18526C65.8592 4.25903 65.7513 4.3328 65.5971 4.43608C65.1809 4.70166 64.8263 5.21805 64.6721 5.61642L67.185 4.53936V7.90332L65.1655 8.8771C65.3967 9.18693 66.1058 9.64431 66.6917 9.71809C67.7091 9.82137 68.3104 9.39349 68.3104 9.39349V7.20987L67.5241 6.5902L68.3104 5.97052V4.42133C67.8787 4.37707 67.3546 4.24428 67.0462 4.17051C66.5992 4.06723 65.0884 3.65411 64.8571 3.6246C64.6259 3.59509 64.333 3.59509 64.148 3.75739C63.9784 3.90493 63.8551 4.17051 63.9322 4.42133C63.9784 4.55412 64.0709 4.64264 64.148 4.71641C64.148 4.71641 64.0555 4.71641 63.9013 4.61313C63.6238 4.45084 63.408 4.12624 63.3772 3.74263C63.3463 3.22624 63.5622 2.76886 64.0092 2.44427C64.3946 2.2082 64.8263 2.06066 65.335 2.11967C66.075 2.22295 67.0771 2.62132 67.9558 2.82787C68.295 2.90165 68.5724 2.93115 68.8037 2.79837C68.9116 2.72459 69.112 2.51804 68.9579 2.25246C68.7729 1.94262 68.4029 1.94262 68.0945 1.89836C68.372 1.83934 68.4337 1.83934 68.6341 1.8541Z" fill="#B1A6AF"/>
<path d="M87.4728 5.7345V7.26894L88.0123 7.71156C88.0123 7.71156 89.1685 6.82631 89.6002 6.00007C89.6002 6.00007 89.076 6.67877 88.3669 6.47221C87.7811 6.29516 87.4728 5.7345 87.4728 5.7345ZM86.1778 9.80666C86.1778 9.80666 86.6865 8.99518 87.5652 9.17223C88.3977 9.33452 88.6906 10.1903 88.6906 10.1903V8.24271L88.1048 7.75582C87.4573 8.3755 86.3165 9.26075 86.1778 9.80666ZM87.0103 11.2968C86.8407 11.3411 86.1315 11.1788 85.962 10.4706C85.7924 9.7919 86.3011 9.31977 87.0411 8.59681L86.1469 7.81484V6.33942C86.1469 6.33942 86.7944 6.02958 87.3032 5.71974C87.8119 5.40991 88.3361 5.08531 88.3361 5.08531C88.3361 5.08531 88.7215 5.54269 89.1531 5.51319C89.8314 5.45417 89.8006 4.95253 89.7698 4.83449C89.8777 5.0263 90.186 5.61647 89.0144 6.92959L89.9856 7.68205V9.6001C89.9856 9.6001 88.8602 10.1608 87.8119 10.8985C87.8119 10.8985 87.2261 10.1903 86.7019 10.5296C86.3628 10.7362 86.5169 11.1198 87.0103 11.2968Z" fill="#B1A6AF"/>
<path d="M48.2384 9.11324L49.4871 10.1903V6.88535L48.2384 5.77879V9.11324ZM50.7975 6.41322L51.2292 6.02961L51.2908 6.10338L50.8746 6.47223V9.52635C50.8746 9.52635 50.073 9.93947 49.5026 10.2346C48.9476 10.5444 48.3463 10.8985 48.3463 10.8985L46.8664 9.7034L46.481 10.028L46.4193 9.95422L46.8356 9.61488V6.33945C46.8356 6.33945 47.5293 6.04436 48.1151 5.71977C48.6393 5.43944 49.2251 5.11485 49.2251 5.11485L50.7975 6.41322Z" fill="#B1A6AF"/>
<path d="M53.6958 6.1034L54.6362 5.18864C54.6362 5.18864 54.7595 5.29192 54.8828 5.35094C54.9445 5.38045 55.2374 5.52799 55.4995 5.38045C55.6382 5.30668 55.6536 5.29192 55.8078 5.14438C55.8386 5.85258 55.4841 6.35423 55.037 6.56078C54.852 6.64931 54.3278 6.81161 53.7574 6.16242V9.45261L54.3432 9.95425L54.8366 9.55589L54.8982 9.62966L53.3412 10.869L52.1696 9.83622L51.7379 10.2198L51.6608 10.1461L52.3083 9.58539V6.73783L51.815 6.1034L51.3833 6.45751L51.3217 6.39849L52.817 5.10012L53.6958 6.1034Z" fill="#B1A6AF"/>
<path d="M57.6423 7.47549L59.3689 5.07056C59.3689 5.07056 59.6002 5.33613 60.001 5.42466C60.5406 5.55745 61.0185 5.0558 61.0185 5.0558C60.926 5.70499 60.5868 6.42795 59.8777 6.54598C59.261 6.64926 58.6752 6.17712 58.6752 6.17712L58.5673 6.33942L60.9722 9.82141L61.4501 9.42305L61.5118 9.49682L59.8623 10.8837L57.6423 7.47549Z" fill="#B1A6AF"/>
<path d="M56.224 4.25908C56.224 3.74268 56.0082 3.41809 55.7153 3.4476L57.6115 2.17874V9.36403L58.1048 9.86568L58.4902 9.55584L58.5519 9.62961L57.0257 10.8985L55.9928 9.96896L55.5766 10.3231L55.5149 10.2493L56.2395 9.64436V4.25908" fill="#B1A6AF"/>
<path d="M44.0914 6.2804C44.0914 6.2804 43.8756 6.50172 43.5519 6.50172C43.2281 6.50172 43.0123 6.2804 43.0123 6.2804V7.26893C43.0123 7.26893 43.2281 7.04762 43.5519 7.04762C43.8756 7.04762 44.0914 7.26893 44.0914 7.26893V6.2804ZM44.0914 4.17055L43.3669 3.55088L43.0123 3.81645V6.11811C43.0123 6.11811 43.2281 6.38368 43.5519 6.38368C43.8756 6.38368 44.0914 6.13286 44.0914 6.13286V4.17055ZM43.0123 10.7067C43.0123 10.7067 43.4594 10.8247 43.7677 10.5739C44.1223 10.2935 44.0914 9.89518 44.0914 9.89518V7.40172C44.0914 7.40172 43.891 7.1509 43.5519 7.1509C43.2281 7.1509 43.0123 7.41648 43.0123 7.41648V10.7067ZM40.4224 4.14104C40.4224 3.65416 40.222 3.38858 39.8828 3.37383C39.4049 3.35907 39.2816 4.00826 39.2816 4.00826C39.2816 4.00826 39.1891 3.50661 39.6362 3.04923C39.8828 2.79841 40.3453 2.44431 41.0545 2.60661C41.7944 2.78366 42.0103 3.32956 42.0103 3.81645V10.5001C42.0103 10.5001 42.2878 10.5296 42.4882 10.5739C42.704 10.6181 42.9198 10.6772 42.9198 10.6772V2.62136H43.0123V3.71317L44.5231 2.54759L45.6331 3.49186L46.1572 3.06399L46.2189 3.13776L45.6793 3.58039V9.7919C45.6485 10.1903 45.5868 10.6034 45.186 10.8542C44.2919 11.3558 43.2127 10.7804 42.2569 10.6476C41.5478 10.5444 40.4224 10.4116 40.1449 11.046C40.0524 11.2526 40.0524 11.5624 40.3761 11.769C41.0236 12.1821 43.9065 11.0755 44.8931 11.5181C45.8027 11.9165 45.7872 12.5509 45.6485 12.9936C45.4172 13.8198 44.3381 13.9526 44.3381 13.9526C44.3381 13.9526 44.8623 13.6575 44.7235 13.1706C44.6464 12.9198 44.4768 12.8608 43.9064 12.9198C42.6732 13.0526 41.1932 13.628 40.1911 13.2296C39.6824 13.0231 39.3124 12.4181 39.3587 11.8132C39.3895 10.9427 40.4224 10.6034 40.4224 10.6034V7.40172C40.3916 7.26894 39.8366 7.3132 39.7132 7.54926C39.5282 7.90337 39.9445 8.06566 39.9445 8.06566C39.9445 8.06566 39.6053 8.10992 39.3124 7.80009C39.1737 7.63779 38.8808 7.09188 39.2662 6.59024C39.5745 6.17712 39.9599 6.10335 40.4378 6.05909V4.14104H40.4224Z" fill="#B1A6AF"/>
</g>
<defs>
<clipPath id="clip0_3082_6991">
<rect width="90" height="12.905" fill="white" transform="translate(0 0.628906)"/>
</clipPath>
</defs>
</svg>
