<svg width="22" height="21" viewBox="0 0 22 21" fill="none" xmlns="http://www.w3.org/2000/svg">
<path d="M22 19.1829C22 19.3092 22 19.4413 22 19.5675C21.7933 20.0727 21.4145 20.2219 20.8806 20.2219C14.2792 20.2105 7.67199 20.2162 1.07055 20.2162C0.990183 20.2162 0.915558 20.2162 0.835192 20.2162C0.416144 20.2047 0.0717205 19.9005 0.00857628 19.4814C-0.0488276 19.0854 0.186528 18.6663 0.576875 18.5572C0.772048 18.5056 0.789269 18.408 0.789269 18.2415C0.783529 14.8088 0.783529 11.3818 0.789269 7.949C0.789269 7.63902 0.812231 7.31756 0.886856 7.01332C1.25424 5.44619 2.62619 4.367 4.2335 4.35552C4.41719 4.35552 4.60089 4.35552 4.8018 4.35552C4.8018 3.99961 4.79606 3.67815 4.8018 3.35669C4.84772 1.49107 6.35744 0.0100457 8.21733 0.00430529C10.0715 -0.0014351 11.9256 -0.0014351 13.7798 0.00430529C15.3124 0.0100457 16.6557 1.01461 17.0518 2.49563C17.1551 2.8745 17.1551 3.28781 17.1896 3.68389C17.2068 3.90203 17.1953 4.12016 17.1953 4.34978C17.4249 4.34978 17.6143 4.34404 17.8095 4.34978C18.3491 4.36126 18.8657 4.47033 19.3365 4.73439C20.5764 5.41749 21.2021 6.47372 21.2078 7.88586C21.2136 11.3243 21.2078 14.7628 21.2078 18.2013C21.2078 18.2932 21.2078 18.385 21.2078 18.4884C21.6326 18.563 21.8737 18.8098 22 19.1829ZM15.4732 18.4941C15.4789 18.4252 15.4847 18.3735 15.4847 18.3276C15.4847 13.3851 15.4904 8.44268 15.4847 3.5002C15.4847 2.45545 14.7499 1.7379 13.7051 1.7379C11.9084 1.7379 10.1117 1.7379 8.30918 1.7379C8.18863 1.7379 8.06234 1.74364 7.94753 1.76086C7.19554 1.88715 6.51243 2.55304 6.51243 3.58057C6.52966 8.47138 6.51818 13.3679 6.51818 18.2587C6.51818 18.3334 6.52392 18.4137 6.52966 18.4941C7.1611 18.4941 7.76958 18.4941 8.4125 18.4941C8.4125 18.4022 8.4125 18.3161 8.4125 18.23C8.4125 16.8523 8.4125 15.4804 8.4125 14.1027C8.4125 13.4942 8.74545 13.1613 9.35393 13.1555C10.4331 13.1555 11.5181 13.1555 12.5972 13.1555C13.2746 13.1555 13.5903 13.4713 13.5903 14.1544C13.5903 15.5148 13.5903 16.8753 13.5903 18.2358C13.5903 18.3161 13.5903 18.4022 13.5903 18.4884C14.2333 18.4941 14.8417 18.4941 15.4732 18.4941ZM4.78458 6.07763C4.62959 6.07763 4.48608 6.07763 4.34831 6.07763C3.23467 6.07763 2.50564 6.80092 2.50564 7.9203C2.50564 11.3645 2.50564 14.8088 2.50564 18.2587C2.50564 18.3334 2.50564 18.408 2.50564 18.4826C3.28634 18.4826 4.03259 18.4826 4.78458 18.4826C4.78458 14.3438 4.78458 10.2222 4.78458 6.07763ZM17.2183 6.1006C17.2183 10.2279 17.2183 14.3553 17.2183 18.4769C17.9817 18.4769 18.728 18.4769 19.4857 18.4769C19.4915 18.4022 19.4915 18.3506 19.4915 18.2932C19.4915 14.826 19.4915 11.3588 19.4915 7.8916C19.4915 7.73087 19.48 7.55866 19.4398 7.40367C19.2159 6.44502 18.2917 5.91116 17.2183 6.1006ZM10.1461 14.8834C10.1461 16.1003 10.1461 17.2886 10.1461 18.4826C10.7316 18.4826 11.2942 18.4826 11.8567 18.4826C11.8567 17.2771 11.8567 16.0831 11.8567 14.8834C11.277 14.8834 10.7201 14.8834 10.1461 14.8834Z" fill="white"/>
<path d="M8.41271 4.86141C8.41271 4.70642 8.40697 4.54569 8.41271 4.3907C8.44141 3.95443 8.78583 3.62723 9.22784 3.60427C9.64689 3.5813 10.0487 3.87981 10.0946 4.30459C10.1348 4.67772 10.1348 5.06232 10.0946 5.43545C10.0487 5.86598 9.65263 6.14726 9.20488 6.12429C8.78583 6.10133 8.44141 5.76265 8.41271 5.33786C8.40697 5.17713 8.41271 5.0164 8.41271 4.86141Z" fill="white"/>
<path d="M13.5905 4.86694C13.5905 5.01619 13.5962 5.16543 13.5905 5.31468C13.5675 5.75669 13.2231 6.10112 12.7925 6.11834C12.3391 6.1413 11.9487 5.84854 11.9028 5.40079C11.8683 5.03915 11.8683 4.67176 11.9028 4.31012C11.9487 3.87385 12.3563 3.56961 12.7811 3.59831C13.2346 3.62701 13.5675 3.96569 13.5905 4.41344C13.5962 4.56843 13.5905 4.71769 13.5905 4.86694Z" fill="white"/>
<path d="M10.1404 9.79727C10.1289 9.98671 10.1347 10.1704 10.106 10.3541C10.0371 10.7961 9.65246 11.0889 9.19897 11.0602C8.77992 11.0315 8.4355 10.6928 8.41828 10.2622C8.4068 9.95801 8.4068 9.64802 8.41828 9.33804C8.4355 8.89603 8.7914 8.55161 9.23915 8.53439C9.6582 8.51717 10.0371 8.82141 10.106 9.24046C10.1347 9.42989 10.1289 9.61358 10.1404 9.79727Z" fill="white"/>
<path d="M13.5903 9.81509C13.5903 9.9586 13.5961 10.1021 13.5903 10.2456C13.5674 10.6876 13.2287 11.0378 12.8039 11.0608C12.3447 11.0895 11.9428 10.791 11.8969 10.3375C11.8625 9.98156 11.8625 9.61992 11.8969 9.26975C11.9428 8.83348 12.3389 8.5235 12.7637 8.54072C13.2172 8.56368 13.5674 8.90811 13.5903 9.36734C13.5961 9.51659 13.5903 9.66584 13.5903 9.81509Z" fill="white"/>
</svg>
