<svg width="22" height="22" viewBox="0 0 22 22" fill="none" xmlns="http://www.w3.org/2000/svg">
<path d="M21.978 6.43999C21.8328 6.7359 21.6983 7.03181 21.5476 7.32233C21.327 7.7366 20.9558 7.898 20.5039 7.77426C20.2349 7.70432 19.9712 7.61285 19.7022 7.54829C19.6215 7.52677 19.5086 7.5483 19.4332 7.59134C19.2503 7.68818 19.0728 7.79578 18.906 7.91952C18.8253 7.9787 18.75 8.08092 18.7284 8.17777C18.6639 8.44677 18.6423 8.72654 18.5885 9.00092C18.5025 9.42057 18.1797 9.68958 17.76 9.70572C17.4964 9.7111 17.2328 9.7111 16.9638 9.70572C16.5495 9.69496 16.2267 9.42595 16.1406 9.02245C16.076 8.72116 16.0276 8.41987 15.9684 8.11859C15.9577 8.05941 15.9308 7.98946 15.8877 7.95718C15.7102 7.83882 15.5273 7.73122 15.3336 7.629C15.2852 7.60747 15.2098 7.61824 15.156 7.63976C14.8924 7.72584 14.6342 7.82806 14.3652 7.91414C13.9132 8.06479 13.5259 7.91952 13.2838 7.51064C13.1654 7.30619 13.0524 7.10175 12.9394 6.89192C12.7135 6.46151 12.7942 6.058 13.1762 5.74058C13.3914 5.56303 13.6119 5.39087 13.8272 5.21333C13.9939 5.07345 13.9778 4.71298 13.7949 4.58923C13.5797 4.43859 13.3537 4.29333 13.1439 4.13731C12.7565 3.85754 12.6435 3.45403 12.8426 3.02362C12.961 2.77076 13.0847 2.52327 13.2192 2.27579C13.429 1.88842 13.8056 1.72702 14.236 1.84538C14.4889 1.91532 14.7418 1.99602 14.9946 2.07672C15.0377 2.08748 15.0753 2.10362 15.1184 2.11438C15.3121 2.16819 15.9469 1.74854 15.9738 1.54947C16.0061 1.32351 16.0438 1.09754 16.0653 0.871579C16.1083 0.430409 16.345 0.156023 16.7486 0C17.1521 0 17.5502 0 17.9537 0C18.4002 0.166783 18.6101 0.494971 18.6531 0.957661C18.6746 1.17287 18.7231 1.38269 18.7715 1.58713C18.7876 1.65169 18.836 1.72702 18.8898 1.76468C19.0297 1.86152 19.175 1.95298 19.331 2.0283C19.3956 2.06058 19.4924 2.07672 19.5623 2.0552C19.8475 1.96374 20.1273 1.85076 20.4124 1.75392C20.8859 1.59251 21.284 1.73778 21.5207 2.17894C21.6875 2.48023 21.8328 2.7869 21.9888 3.08818C21.9888 3.20117 21.9888 3.31953 21.9888 3.43251C21.8919 3.72304 21.6983 3.92748 21.4508 4.09964C21.284 4.21263 21.1333 4.34175 20.9719 4.46011C20.7245 4.64842 20.7245 4.91742 20.9719 5.10034C21.1226 5.20795 21.2678 5.32631 21.4239 5.42315C21.6821 5.58993 21.8866 5.79976 21.9888 6.09566C21.978 6.21403 21.978 6.32701 21.978 6.43999ZM19.0728 4.88514C19.105 3.96514 18.3572 3.16889 17.4318 3.13122C16.4742 3.09356 15.6779 3.83602 15.6403 4.79906C15.608 5.72982 16.3558 6.53145 17.2919 6.56373C18.255 6.6014 19.0405 5.85894 19.0728 4.88514Z" fill="white"/>
<path d="M12.848 11.8808C13.5259 12.2413 14.2038 12.5694 14.8548 12.9568C15.6295 13.4141 16.2859 14.0275 16.8831 14.7C17.222 15.082 17.1951 15.6092 16.84 15.932C16.4742 16.2602 15.9523 16.2279 15.5972 15.8298C14.8494 14.9959 13.994 14.3126 12.9717 13.8607C10.1257 12.6125 7.40332 12.86 4.86391 14.6515C3.21221 15.8136 2.19537 17.4331 1.73806 19.4022C1.6197 19.9187 1.89409 20.2791 2.4321 20.2791C3.93315 20.2791 5.43958 20.2791 6.94063 20.2791C10.1687 20.2791 13.3968 20.2791 16.6302 20.2791C17.2059 20.2791 17.4749 19.9779 17.4103 19.4129C17.3511 18.9395 17.6524 18.536 18.1205 18.4499C18.5563 18.3692 18.9975 18.6705 19.0943 19.1278C19.4063 20.5374 18.3196 21.9416 16.8777 21.9954C16.8131 21.9954 16.7486 22.0008 16.684 22.0008C11.9387 22.0008 7.18811 22.0008 2.44286 22.0008C1.25923 22.0008 0.317716 21.3067 0.064851 20.1931C-0.0158507 19.8487 -0.0212334 19.456 0.048708 19.1117C0.522158 16.9004 1.63584 15.0658 3.36823 13.6132C4.18063 12.9353 5.08449 12.408 6.07981 12.0314C6.16051 11.9992 6.23584 11.9669 6.28426 11.9453C5.95607 11.558 5.59022 11.1975 5.30507 10.7832C4.54648 9.6857 4.25057 8.45366 4.47116 7.13015C4.81548 5.10185 5.98297 3.72992 7.90905 3.01975C8.86671 2.67004 9.85665 2.65928 10.8466 2.91215C11.2931 3.02513 11.5621 3.4663 11.4707 3.8967C11.3738 4.35401 10.9703 4.63916 10.5023 4.57998C10.3678 4.56384 10.2333 4.52618 10.1041 4.50466C8.26952 4.19261 6.44566 5.4946 6.17128 7.31845C5.87537 9.26067 7.17736 11.0469 9.08191 11.289C10.4323 11.4611 11.5191 10.9769 12.3476 9.89553C12.4014 9.82559 12.4499 9.75564 12.5037 9.69108C12.8103 9.31448 13.3107 9.24453 13.6927 9.52968C14.0585 9.79869 14.1661 10.3098 13.8863 10.6918C13.6012 11.0738 13.2676 11.4181 12.9502 11.7786C12.9072 11.8324 12.8641 11.8646 12.848 11.8808Z" fill="white"/>
</svg>
